<mxfile host="app.diagrams.net" modified="2024-04-18T10:38:09.303Z" agent="Mozilla/5.0 (X11; Linux x86_64; rv:124.0) Gecko/20100101 Firefox/124.0" etag="fxtrPXwg3rgyCoR6bDx_" version="24.2.5" type="github">
  <diagram id="R2lEEEUBdFMjLlhIrx00" name="Page-1">
    <mxGraphModel dx="1591" dy="803" grid="1" gridSize="10" guides="1" tooltips="1" connect="1" arrows="1" fold="1" page="1" pageScale="1" pageWidth="1100" pageHeight="1100" math="0" shadow="0" extFonts="Permanent Marker^https://fonts.googleapis.com/css?family=Permanent+Marker">
      <root>
        <mxCell id="0" />
        <mxCell id="1" parent="0" />
        <mxCell id="x8ZEyGMmbt7tFjFz_5fG-46" value="Rate" style="ellipse;whiteSpace=wrap;html=1;align=center;" parent="1" vertex="1">
          <mxGeometry x="974" y="271" width="100" height="40" as="geometry" />
        </mxCell>
        <mxCell id="gXt64RuRlVnK6JQTjlX0-2" style="rounded=0;orthogonalLoop=1;jettySize=auto;html=1;exitX=0;exitY=0.5;exitDx=0;exitDy=0;entryX=1;entryY=0.5;entryDx=0;entryDy=0;endArrow=none;endFill=0;" parent="1" source="x8ZEyGMmbt7tFjFz_5fG-1" target="gXt64RuRlVnK6JQTjlX0-1" edge="1">
          <mxGeometry relative="1" as="geometry" />
        </mxCell>
        <mxCell id="gXt64RuRlVnK6JQTjlX0-3" style="rounded=0;orthogonalLoop=1;jettySize=auto;html=1;endArrow=none;endFill=0;" parent="1" source="x8ZEyGMmbt7tFjFz_5fG-1" target="haqXAU8X_8pByM_LPozM-32" edge="1">
          <mxGeometry relative="1" as="geometry" />
        </mxCell>
        <mxCell id="gXt64RuRlVnK6JQTjlX0-36" value="M" style="edgeLabel;html=1;align=center;verticalAlign=middle;resizable=0;points=[];" parent="gXt64RuRlVnK6JQTjlX0-3" vertex="1" connectable="0">
          <mxGeometry x="-0.8942" relative="1" as="geometry">
            <mxPoint x="-1" y="3" as="offset" />
          </mxGeometry>
        </mxCell>
        <mxCell id="gXt64RuRlVnK6JQTjlX0-25" style="rounded=0;orthogonalLoop=1;jettySize=auto;html=1;exitX=0.5;exitY=1;exitDx=0;exitDy=0;entryX=0.5;entryY=0;entryDx=0;entryDy=0;endArrow=none;endFill=0;" parent="1" source="x8ZEyGMmbt7tFjFz_5fG-1" target="gXt64RuRlVnK6JQTjlX0-24" edge="1">
          <mxGeometry relative="1" as="geometry" />
        </mxCell>
        <mxCell id="gXt64RuRlVnK6JQTjlX0-33" value="M" style="edgeLabel;html=1;align=center;verticalAlign=middle;resizable=0;points=[];" parent="gXt64RuRlVnK6JQTjlX0-25" vertex="1" connectable="0">
          <mxGeometry x="-0.6456" relative="1" as="geometry">
            <mxPoint as="offset" />
          </mxGeometry>
        </mxCell>
        <mxCell id="gXt64RuRlVnK6JQTjlX0-66" style="rounded=0;orthogonalLoop=1;jettySize=auto;html=1;exitX=0.5;exitY=1;exitDx=0;exitDy=0;endArrow=none;endFill=0;entryX=0.5;entryY=0;entryDx=0;entryDy=0;" parent="1" source="x8ZEyGMmbt7tFjFz_5fG-1" target="Ki7yifnEwKV7LB0Z3aAY-1" edge="1">
          <mxGeometry relative="1" as="geometry">
            <mxPoint x="250" y="330" as="targetPoint" />
          </mxGeometry>
        </mxCell>
        <mxCell id="gXt64RuRlVnK6JQTjlX0-68" value="M" style="edgeLabel;html=1;align=center;verticalAlign=middle;resizable=0;points=[];" parent="gXt64RuRlVnK6JQTjlX0-66" vertex="1" connectable="0">
          <mxGeometry x="-0.6356" y="-1" relative="1" as="geometry">
            <mxPoint x="4" y="-9" as="offset" />
          </mxGeometry>
        </mxCell>
        <mxCell id="gXt64RuRlVnK6JQTjlX0-78" style="rounded=0;orthogonalLoop=1;jettySize=auto;html=1;exitX=0.75;exitY=1;exitDx=0;exitDy=0;entryX=0.5;entryY=0;entryDx=0;entryDy=0;endArrow=none;endFill=0;" parent="1" source="x8ZEyGMmbt7tFjFz_5fG-1" target="gXt64RuRlVnK6JQTjlX0-77" edge="1">
          <mxGeometry relative="1" as="geometry" />
        </mxCell>
        <mxCell id="gXt64RuRlVnK6JQTjlX0-90" value="M" style="edgeLabel;html=1;align=center;verticalAlign=middle;resizable=0;points=[];" parent="gXt64RuRlVnK6JQTjlX0-78" vertex="1" connectable="0">
          <mxGeometry x="-0.6994" y="1" relative="1" as="geometry">
            <mxPoint as="offset" />
          </mxGeometry>
        </mxCell>
        <mxCell id="x8ZEyGMmbt7tFjFz_5fG-1" value="&lt;div style=&quot;font-size: 18px;&quot;&gt;&lt;font size=&quot;1&quot;&gt;&lt;b&gt;&lt;font style=&quot;font-size: 17px;&quot;&gt;user&lt;/font&gt;&lt;/b&gt;&lt;/font&gt;&lt;/div&gt;" style="rounded=1;arcSize=9;whiteSpace=wrap;html=1;align=center;" parent="1" vertex="1">
          <mxGeometry x="306" y="181" width="110" height="50" as="geometry" />
        </mxCell>
        <mxCell id="x8ZEyGMmbt7tFjFz_5fG-2" value="&lt;div&gt;First_Name&lt;/div&gt;" style="ellipse;whiteSpace=wrap;html=1;align=center;" parent="1" vertex="1">
          <mxGeometry x="43" y="111" width="70" height="40" as="geometry" />
        </mxCell>
        <mxCell id="x8ZEyGMmbt7tFjFz_5fG-13" style="edgeStyle=none;curved=1;rounded=0;orthogonalLoop=1;jettySize=auto;html=1;exitX=1;exitY=0.5;exitDx=0;exitDy=0;entryX=0;entryY=0.25;entryDx=0;entryDy=0;fontSize=12;startSize=8;endSize=8;endArrow=none;endFill=0;" parent="1" source="x8ZEyGMmbt7tFjFz_5fG-3" target="x8ZEyGMmbt7tFjFz_5fG-1" edge="1">
          <mxGeometry relative="1" as="geometry" />
        </mxCell>
        <mxCell id="x8ZEyGMmbt7tFjFz_5fG-3" value="&lt;div&gt;&lt;u&gt;User_ID&lt;/u&gt;&lt;/div&gt;" style="ellipse;whiteSpace=wrap;html=1;align=center;" parent="1" vertex="1">
          <mxGeometry x="21" y="151" width="70" height="40" as="geometry" />
        </mxCell>
        <mxCell id="x8ZEyGMmbt7tFjFz_5fG-16" style="edgeStyle=none;curved=1;rounded=0;orthogonalLoop=1;jettySize=auto;html=1;exitX=0.5;exitY=1;exitDx=0;exitDy=0;entryX=0;entryY=0.25;entryDx=0;entryDy=0;fontSize=12;startSize=8;endSize=8;endArrow=none;endFill=0;" parent="1" source="x8ZEyGMmbt7tFjFz_5fG-4" target="x8ZEyGMmbt7tFjFz_5fG-1" edge="1">
          <mxGeometry relative="1" as="geometry" />
        </mxCell>
        <mxCell id="x8ZEyGMmbt7tFjFz_5fG-4" value="&lt;div&gt;Phone_num&lt;/div&gt;" style="ellipse;whiteSpace=wrap;html=1;align=center;" parent="1" vertex="1">
          <mxGeometry x="18" y="196" width="100" height="40" as="geometry" />
        </mxCell>
        <mxCell id="x8ZEyGMmbt7tFjFz_5fG-11" style="edgeStyle=none;curved=1;rounded=0;orthogonalLoop=1;jettySize=auto;html=1;exitX=1;exitY=1;exitDx=0;exitDy=0;entryX=0;entryY=0.25;entryDx=0;entryDy=0;fontSize=12;startSize=8;endSize=8;endArrow=none;endFill=0;" parent="1" source="x8ZEyGMmbt7tFjFz_5fG-5" target="x8ZEyGMmbt7tFjFz_5fG-1" edge="1">
          <mxGeometry relative="1" as="geometry" />
        </mxCell>
        <mxCell id="x8ZEyGMmbt7tFjFz_5fG-5" value="&lt;div&gt;Last_Name&lt;/div&gt;" style="ellipse;whiteSpace=wrap;html=1;align=center;" parent="1" vertex="1">
          <mxGeometry x="118" y="88" width="70" height="40" as="geometry" />
        </mxCell>
        <mxCell id="x8ZEyGMmbt7tFjFz_5fG-12" style="edgeStyle=none;curved=1;rounded=0;orthogonalLoop=1;jettySize=auto;html=1;exitX=1;exitY=1;exitDx=0;exitDy=0;entryX=0;entryY=0.25;entryDx=0;entryDy=0;fontSize=12;startSize=8;endSize=8;endArrow=none;endFill=0;" parent="1" source="x8ZEyGMmbt7tFjFz_5fG-6" target="x8ZEyGMmbt7tFjFz_5fG-1" edge="1">
          <mxGeometry relative="1" as="geometry" />
        </mxCell>
        <mxCell id="x8ZEyGMmbt7tFjFz_5fG-6" value="&lt;div&gt;Username&lt;/div&gt;" style="ellipse;whiteSpace=wrap;html=1;align=center;" parent="1" vertex="1">
          <mxGeometry x="191" y="86" width="70" height="40" as="geometry" />
        </mxCell>
        <mxCell id="x8ZEyGMmbt7tFjFz_5fG-15" style="edgeStyle=none;curved=1;rounded=0;orthogonalLoop=1;jettySize=auto;html=1;exitX=0.5;exitY=1;exitDx=0;exitDy=0;entryX=0.5;entryY=0;entryDx=0;entryDy=0;fontSize=12;startSize=8;endSize=8;endArrow=none;endFill=0;" parent="1" source="x8ZEyGMmbt7tFjFz_5fG-7" target="x8ZEyGMmbt7tFjFz_5fG-1" edge="1">
          <mxGeometry relative="1" as="geometry" />
        </mxCell>
        <mxCell id="x8ZEyGMmbt7tFjFz_5fG-7" value="Password" style="ellipse;whiteSpace=wrap;html=1;align=center;" parent="1" vertex="1">
          <mxGeometry x="341" y="86" width="70" height="40" as="geometry" />
        </mxCell>
        <mxCell id="x8ZEyGMmbt7tFjFz_5fG-14" style="edgeStyle=none;curved=1;rounded=0;orthogonalLoop=1;jettySize=auto;html=1;exitX=0.5;exitY=1;exitDx=0;exitDy=0;entryX=0.5;entryY=0;entryDx=0;entryDy=0;fontSize=12;startSize=8;endSize=8;endArrow=none;endFill=0;" parent="1" source="x8ZEyGMmbt7tFjFz_5fG-8" target="x8ZEyGMmbt7tFjFz_5fG-1" edge="1">
          <mxGeometry relative="1" as="geometry" />
        </mxCell>
        <mxCell id="x8ZEyGMmbt7tFjFz_5fG-8" value="&lt;div&gt;Email&lt;/div&gt;" style="ellipse;whiteSpace=wrap;html=1;align=center;" parent="1" vertex="1">
          <mxGeometry x="266" y="86" width="70" height="40" as="geometry" />
        </mxCell>
        <mxCell id="x8ZEyGMmbt7tFjFz_5fG-10" style="edgeStyle=none;curved=1;rounded=0;orthogonalLoop=1;jettySize=auto;html=1;exitX=1;exitY=0.5;exitDx=0;exitDy=0;entryX=0;entryY=0.25;entryDx=0;entryDy=0;fontSize=12;startSize=8;endSize=8;endArrow=none;endFill=0;" parent="1" source="x8ZEyGMmbt7tFjFz_5fG-2" target="x8ZEyGMmbt7tFjFz_5fG-1" edge="1">
          <mxGeometry relative="1" as="geometry" />
        </mxCell>
        <mxCell id="gXt64RuRlVnK6JQTjlX0-27" style="rounded=0;orthogonalLoop=1;jettySize=auto;html=1;exitX=0.5;exitY=1;exitDx=0;exitDy=0;entryX=0.5;entryY=0;entryDx=0;entryDy=0;endArrow=none;endFill=0;" parent="1" source="x8ZEyGMmbt7tFjFz_5fG-19" target="gXt64RuRlVnK6JQTjlX0-23" edge="1">
          <mxGeometry relative="1" as="geometry" />
        </mxCell>
        <mxCell id="gXt64RuRlVnK6JQTjlX0-32" value="1" style="edgeLabel;html=1;align=center;verticalAlign=middle;resizable=0;points=[];" parent="gXt64RuRlVnK6JQTjlX0-27" vertex="1" connectable="0">
          <mxGeometry x="-0.7906" y="1" relative="1" as="geometry">
            <mxPoint x="-6" y="5" as="offset" />
          </mxGeometry>
        </mxCell>
        <mxCell id="gXt64RuRlVnK6JQTjlX0-55" style="edgeStyle=orthogonalEdgeStyle;rounded=0;orthogonalLoop=1;jettySize=auto;html=1;exitX=0.5;exitY=1;exitDx=0;exitDy=0;entryX=1;entryY=0.5;entryDx=0;entryDy=0;endArrow=none;endFill=0;" parent="1" source="x8ZEyGMmbt7tFjFz_5fG-19" edge="1">
          <mxGeometry relative="1" as="geometry">
            <mxPoint x="812" y="233" as="sourcePoint" />
            <mxPoint x="686.5" y="898.9999999999998" as="targetPoint" />
            <Array as="points">
              <mxPoint x="846" y="899" />
            </Array>
          </mxGeometry>
        </mxCell>
        <mxCell id="gXt64RuRlVnK6JQTjlX0-57" value="M" style="edgeLabel;html=1;align=center;verticalAlign=middle;resizable=0;points=[];" parent="gXt64RuRlVnK6JQTjlX0-55" vertex="1" connectable="0">
          <mxGeometry x="-0.7831" relative="1" as="geometry">
            <mxPoint y="-38" as="offset" />
          </mxGeometry>
        </mxCell>
        <mxCell id="gXt64RuRlVnK6JQTjlX0-99" style="rounded=0;orthogonalLoop=1;jettySize=auto;html=1;exitX=0.5;exitY=1;exitDx=0;exitDy=0;entryX=0.5;entryY=0;entryDx=0;entryDy=0;endArrow=none;endFill=0;" parent="1" source="x8ZEyGMmbt7tFjFz_5fG-19" target="gXt64RuRlVnK6JQTjlX0-98" edge="1">
          <mxGeometry relative="1" as="geometry" />
        </mxCell>
        <mxCell id="gXt64RuRlVnK6JQTjlX0-101" value="M" style="edgeLabel;html=1;align=center;verticalAlign=middle;resizable=0;points=[];" parent="gXt64RuRlVnK6JQTjlX0-99" vertex="1" connectable="0">
          <mxGeometry x="-0.6616" y="-1" relative="1" as="geometry">
            <mxPoint x="-15" y="5" as="offset" />
          </mxGeometry>
        </mxCell>
        <mxCell id="gXt64RuRlVnK6JQTjlX0-104" style="rounded=0;orthogonalLoop=1;jettySize=auto;html=1;exitX=0.75;exitY=1;exitDx=0;exitDy=0;endArrow=none;endFill=0;entryX=0.5;entryY=0;entryDx=0;entryDy=0;" parent="1" source="x8ZEyGMmbt7tFjFz_5fG-19" target="gXt64RuRlVnK6JQTjlX0-59" edge="1">
          <mxGeometry relative="1" as="geometry" />
        </mxCell>
        <mxCell id="gXt64RuRlVnK6JQTjlX0-107" value="M" style="edgeLabel;html=1;align=center;verticalAlign=middle;resizable=0;points=[];" parent="gXt64RuRlVnK6JQTjlX0-104" vertex="1" connectable="0">
          <mxGeometry x="-0.8392" y="-2" relative="1" as="geometry">
            <mxPoint x="3" y="-1" as="offset" />
          </mxGeometry>
        </mxCell>
        <mxCell id="x8ZEyGMmbt7tFjFz_5fG-19" value="&lt;font style=&quot;font-size: 17px;&quot;&gt;&lt;b&gt;Items&lt;/b&gt;&lt;/font&gt;" style="rounded=1;arcSize=9;whiteSpace=wrap;html=1;align=center;" parent="1" vertex="1">
          <mxGeometry x="791" y="183" width="110" height="50" as="geometry" />
        </mxCell>
        <mxCell id="x8ZEyGMmbt7tFjFz_5fG-20" value="&lt;div&gt;&lt;font style=&quot;font-size: 17px;&quot;&gt;&lt;b&gt;Cart&lt;/b&gt;&lt;/font&gt;&lt;/div&gt;" style="rounded=1;arcSize=9;whiteSpace=wrap;html=1;align=center;" parent="1" vertex="1">
          <mxGeometry x="316.5" y="873" width="110" height="50" as="geometry" />
        </mxCell>
        <mxCell id="x8ZEyGMmbt7tFjFz_5fG-28" style="edgeStyle=none;curved=1;rounded=0;orthogonalLoop=1;jettySize=auto;html=1;exitX=0.5;exitY=1;exitDx=0;exitDy=0;entryX=0.5;entryY=1;entryDx=0;entryDy=0;fontSize=12;startSize=8;endSize=8;endArrow=none;endFill=0;" parent="1" source="x8ZEyGMmbt7tFjFz_5fG-21" target="x8ZEyGMmbt7tFjFz_5fG-20" edge="1">
          <mxGeometry relative="1" as="geometry" />
        </mxCell>
        <mxCell id="x8ZEyGMmbt7tFjFz_5fG-21" value="&lt;div&gt;User_ID&lt;/div&gt;" style="ellipse;whiteSpace=wrap;html=1;align=center;" parent="1" vertex="1">
          <mxGeometry x="246.5" y="973" width="70" height="40" as="geometry" />
        </mxCell>
        <mxCell id="x8ZEyGMmbt7tFjFz_5fG-29" style="edgeStyle=none;curved=1;rounded=0;orthogonalLoop=1;jettySize=auto;html=1;exitX=0.5;exitY=1;exitDx=0;exitDy=0;entryX=0.5;entryY=1;entryDx=0;entryDy=0;fontSize=12;startSize=8;endSize=8;endArrow=none;endFill=0;" parent="1" source="x8ZEyGMmbt7tFjFz_5fG-22" target="x8ZEyGMmbt7tFjFz_5fG-20" edge="1">
          <mxGeometry relative="1" as="geometry" />
        </mxCell>
        <mxCell id="x8ZEyGMmbt7tFjFz_5fG-22" value="&lt;div&gt;&lt;u&gt;Card_ID&lt;/u&gt;&lt;/div&gt;" style="ellipse;whiteSpace=wrap;html=1;align=center;" parent="1" vertex="1">
          <mxGeometry x="328.5" y="973" width="70" height="40" as="geometry" />
        </mxCell>
        <mxCell id="x8ZEyGMmbt7tFjFz_5fG-30" style="edgeStyle=none;curved=1;rounded=0;orthogonalLoop=1;jettySize=auto;html=1;exitX=0.5;exitY=0;exitDx=0;exitDy=0;entryX=0.5;entryY=1;entryDx=0;entryDy=0;fontSize=12;startSize=8;endSize=8;endArrow=none;endFill=0;" parent="1" source="x8ZEyGMmbt7tFjFz_5fG-27" target="x8ZEyGMmbt7tFjFz_5fG-20" edge="1">
          <mxGeometry relative="1" as="geometry" />
        </mxCell>
        <mxCell id="x8ZEyGMmbt7tFjFz_5fG-27" value="&lt;div&gt;&lt;u&gt;Item_ID&lt;/u&gt;&lt;/div&gt;" style="ellipse;whiteSpace=wrap;html=1;align=center;" parent="1" vertex="1">
          <mxGeometry x="413.5" y="973" width="100" height="40" as="geometry" />
        </mxCell>
        <mxCell id="9xolPM95A9rNDPjECbFm-1" value="" style="rounded=0;orthogonalLoop=1;jettySize=auto;html=1;endArrow=none;endFill=0;exitX=0.5;exitY=1;exitDx=0;exitDy=0;" parent="1" source="x8ZEyGMmbt7tFjFz_5fG-31" target="haqXAU8X_8pByM_LPozM-2" edge="1">
          <mxGeometry relative="1" as="geometry" />
        </mxCell>
        <mxCell id="gXt64RuRlVnK6JQTjlX0-62" style="rounded=0;orthogonalLoop=1;jettySize=auto;html=1;exitX=0.5;exitY=1;exitDx=0;exitDy=0;endArrow=none;endFill=0;" parent="1" source="x8ZEyGMmbt7tFjFz_5fG-31" target="gXt64RuRlVnK6JQTjlX0-61" edge="1">
          <mxGeometry relative="1" as="geometry" />
        </mxCell>
        <mxCell id="x8ZEyGMmbt7tFjFz_5fG-31" value="&lt;font style=&quot;font-size: 17px;&quot;&gt;&lt;b&gt;Category&lt;/b&gt;&lt;/font&gt;" style="shape=ext;margin=3;double=1;whiteSpace=wrap;html=1;align=center;" parent="1" vertex="1">
          <mxGeometry x="932" y="587" width="110" height="55" as="geometry" />
        </mxCell>
        <mxCell id="x8ZEyGMmbt7tFjFz_5fG-32" value="&lt;div&gt;&lt;u&gt;Item_ID&lt;/u&gt;&lt;/div&gt;" style="ellipse;whiteSpace=wrap;html=1;align=center;" parent="1" vertex="1">
          <mxGeometry x="974" y="91" width="100" height="40" as="geometry" />
        </mxCell>
        <mxCell id="x8ZEyGMmbt7tFjFz_5fG-33" value="&lt;div&gt;Price&lt;/div&gt;" style="ellipse;whiteSpace=wrap;html=1;align=center;" parent="1" vertex="1">
          <mxGeometry x="974" y="136" width="100" height="40" as="geometry" />
        </mxCell>
        <mxCell id="x8ZEyGMmbt7tFjFz_5fG-40" style="rounded=0;orthogonalLoop=1;jettySize=auto;html=1;exitX=0.5;exitY=1;exitDx=0;exitDy=0;entryX=0.75;entryY=0;entryDx=0;entryDy=0;endArrow=none;endFill=0;" parent="1" source="x8ZEyGMmbt7tFjFz_5fG-36" target="x8ZEyGMmbt7tFjFz_5fG-19" edge="1">
          <mxGeometry relative="1" as="geometry" />
        </mxCell>
        <mxCell id="x8ZEyGMmbt7tFjFz_5fG-36" value="&lt;div&gt;Amount&lt;/div&gt;" style="ellipse;whiteSpace=wrap;html=1;align=center;" parent="1" vertex="1">
          <mxGeometry x="761" y="91" width="100" height="40" as="geometry" />
        </mxCell>
        <mxCell id="x8ZEyGMmbt7tFjFz_5fG-38" style="rounded=0;orthogonalLoop=1;jettySize=auto;html=1;exitX=0.5;exitY=1;exitDx=0;exitDy=0;entryX=0.75;entryY=0;entryDx=0;entryDy=0;endArrow=none;endFill=0;" parent="1" source="x8ZEyGMmbt7tFjFz_5fG-37" target="x8ZEyGMmbt7tFjFz_5fG-19" edge="1">
          <mxGeometry relative="1" as="geometry" />
        </mxCell>
        <mxCell id="x8ZEyGMmbt7tFjFz_5fG-37" value="Offer" style="ellipse;whiteSpace=wrap;html=1;align=center;" parent="1" vertex="1">
          <mxGeometry x="864" y="91" width="100" height="40" as="geometry" />
        </mxCell>
        <mxCell id="x8ZEyGMmbt7tFjFz_5fG-41" style="rounded=0;orthogonalLoop=1;jettySize=auto;html=1;exitX=0;exitY=0.5;exitDx=0;exitDy=0;entryX=1;entryY=0.5;entryDx=0;entryDy=0;endArrow=none;endFill=0;" parent="1" source="x8ZEyGMmbt7tFjFz_5fG-47" target="x8ZEyGMmbt7tFjFz_5fG-19" edge="1">
          <mxGeometry relative="1" as="geometry">
            <mxPoint x="1009.355339059327" y="265.14213562373084" as="sourcePoint" />
            <mxPoint x="1064" y="283.5" as="targetPoint" />
          </mxGeometry>
        </mxCell>
        <mxCell id="x8ZEyGMmbt7tFjFz_5fG-42" style="rounded=0;orthogonalLoop=1;jettySize=auto;html=1;endArrow=none;endFill=0;exitX=0;exitY=0.5;exitDx=0;exitDy=0;" parent="1" source="x8ZEyGMmbt7tFjFz_5fG-32" edge="1">
          <mxGeometry relative="1" as="geometry">
            <mxPoint x="932.5" y="311" as="sourcePoint" />
            <mxPoint x="901" y="211" as="targetPoint" />
          </mxGeometry>
        </mxCell>
        <mxCell id="x8ZEyGMmbt7tFjFz_5fG-43" value="Name" style="ellipse;whiteSpace=wrap;html=1;align=center;" parent="1" vertex="1">
          <mxGeometry x="974" y="181" width="100" height="40" as="geometry" />
        </mxCell>
        <mxCell id="x8ZEyGMmbt7tFjFz_5fG-45" style="rounded=0;orthogonalLoop=1;jettySize=auto;html=1;exitX=0;exitY=0.5;exitDx=0;exitDy=0;endArrow=none;endFill=0;" parent="1" source="x8ZEyGMmbt7tFjFz_5fG-43" edge="1">
          <mxGeometry relative="1" as="geometry">
            <mxPoint x="1034" y="361" as="sourcePoint" />
            <mxPoint x="901" y="211" as="targetPoint" />
          </mxGeometry>
        </mxCell>
        <mxCell id="x8ZEyGMmbt7tFjFz_5fG-47" value="&lt;div&gt;Description&lt;/div&gt;" style="ellipse;whiteSpace=wrap;html=1;align=center;" parent="1" vertex="1">
          <mxGeometry x="974" y="226" width="100" height="40" as="geometry" />
        </mxCell>
        <mxCell id="x8ZEyGMmbt7tFjFz_5fG-50" style="rounded=0;orthogonalLoop=1;jettySize=auto;html=1;entryX=1;entryY=0.5;entryDx=0;entryDy=0;endArrow=none;endFill=0;exitX=0;exitY=0.5;exitDx=0;exitDy=0;" parent="1" source="x8ZEyGMmbt7tFjFz_5fG-33" target="x8ZEyGMmbt7tFjFz_5fG-19" edge="1">
          <mxGeometry relative="1" as="geometry">
            <mxPoint x="1074" y="413.5" as="sourcePoint" />
            <mxPoint x="1091.5" y="321" as="targetPoint" />
          </mxGeometry>
        </mxCell>
        <mxCell id="x8ZEyGMmbt7tFjFz_5fG-51" style="rounded=0;orthogonalLoop=1;jettySize=auto;html=1;exitX=0;exitY=0.5;exitDx=0;exitDy=0;entryX=1;entryY=0.5;entryDx=0;entryDy=0;endArrow=none;endFill=0;" parent="1" source="x8ZEyGMmbt7tFjFz_5fG-46" target="x8ZEyGMmbt7tFjFz_5fG-19" edge="1">
          <mxGeometry relative="1" as="geometry">
            <mxPoint x="1034" y="374" as="sourcePoint" />
            <mxPoint x="1064" y="321" as="targetPoint" />
          </mxGeometry>
        </mxCell>
        <mxCell id="haqXAU8X_8pByM_LPozM-2" value="Name" style="ellipse;whiteSpace=wrap;html=1;align=center;" parent="1" vertex="1">
          <mxGeometry x="985" y="694" width="100" height="40" as="geometry" />
        </mxCell>
        <mxCell id="haqXAU8X_8pByM_LPozM-5" style="rounded=0;orthogonalLoop=1;jettySize=auto;html=1;endArrow=none;endFill=0;entryX=0;entryY=0.5;entryDx=0;entryDy=0;exitX=1;exitY=0.5;exitDx=0;exitDy=0;" parent="1" source="haqXAU8X_8pByM_LPozM-15" target="x8ZEyGMmbt7tFjFz_5fG-19" edge="1">
          <mxGeometry relative="1" as="geometry">
            <mxPoint x="657" y="160" as="sourcePoint" />
          </mxGeometry>
        </mxCell>
        <mxCell id="haqXAU8X_8pByM_LPozM-20" value="N" style="edgeLabel;html=1;align=center;verticalAlign=middle;resizable=0;points=[];" parent="haqXAU8X_8pByM_LPozM-5" vertex="1" connectable="0">
          <mxGeometry x="0.6982" y="2" relative="1" as="geometry">
            <mxPoint x="-7" y="-2" as="offset" />
          </mxGeometry>
        </mxCell>
        <mxCell id="haqXAU8X_8pByM_LPozM-6" style="rounded=0;orthogonalLoop=1;jettySize=auto;html=1;entryX=1;entryY=0.5;entryDx=0;entryDy=0;endArrow=none;endFill=0;exitX=0;exitY=0.5;exitDx=0;exitDy=0;" parent="1" source="haqXAU8X_8pByM_LPozM-15" target="x8ZEyGMmbt7tFjFz_5fG-1" edge="1">
          <mxGeometry relative="1" as="geometry">
            <mxPoint x="472" y="186" as="sourcePoint" />
          </mxGeometry>
        </mxCell>
        <mxCell id="haqXAU8X_8pByM_LPozM-22" value="M" style="edgeLabel;html=1;align=center;verticalAlign=middle;resizable=0;points=[];" parent="haqXAU8X_8pByM_LPozM-6" vertex="1" connectable="0">
          <mxGeometry x="0.6222" relative="1" as="geometry">
            <mxPoint as="offset" />
          </mxGeometry>
        </mxCell>
        <mxCell id="haqXAU8X_8pByM_LPozM-12" style="edgeStyle=none;rounded=0;orthogonalLoop=1;jettySize=auto;html=1;entryX=0;entryY=0.5;entryDx=0;entryDy=0;endArrow=none;endFill=0;exitX=1;exitY=0.5;exitDx=0;exitDy=0;" parent="1" source="haqXAU8X_8pByM_LPozM-17" target="x8ZEyGMmbt7tFjFz_5fG-19" edge="1">
          <mxGeometry relative="1" as="geometry">
            <mxPoint x="657" y="255" as="sourcePoint" />
          </mxGeometry>
        </mxCell>
        <mxCell id="haqXAU8X_8pByM_LPozM-23" value="N" style="edgeLabel;html=1;align=center;verticalAlign=middle;resizable=0;points=[];" parent="haqXAU8X_8pByM_LPozM-12" vertex="1" connectable="0">
          <mxGeometry x="0.5578" relative="1" as="geometry">
            <mxPoint as="offset" />
          </mxGeometry>
        </mxCell>
        <mxCell id="haqXAU8X_8pByM_LPozM-13" style="edgeStyle=none;rounded=0;orthogonalLoop=1;jettySize=auto;html=1;entryX=1;entryY=0.5;entryDx=0;entryDy=0;endArrow=none;endFill=0;exitX=0;exitY=0.5;exitDx=0;exitDy=0;" parent="1" source="haqXAU8X_8pByM_LPozM-17" target="x8ZEyGMmbt7tFjFz_5fG-1" edge="1">
          <mxGeometry relative="1" as="geometry">
            <mxPoint x="577" y="255" as="sourcePoint" />
          </mxGeometry>
        </mxCell>
        <mxCell id="haqXAU8X_8pByM_LPozM-24" value="M" style="edgeLabel;html=1;align=center;verticalAlign=middle;resizable=0;points=[];" parent="haqXAU8X_8pByM_LPozM-13" vertex="1" connectable="0">
          <mxGeometry x="0.6101" y="-3" relative="1" as="geometry">
            <mxPoint y="4" as="offset" />
          </mxGeometry>
        </mxCell>
        <mxCell id="haqXAU8X_8pByM_LPozM-11" style="edgeStyle=none;rounded=0;orthogonalLoop=1;jettySize=auto;html=1;exitX=0;exitY=0.5;exitDx=0;exitDy=0;entryX=1;entryY=0.5;entryDx=0;entryDy=0;endArrow=none;endFill=0;" parent="1" source="haqXAU8X_8pByM_LPozM-10" target="x8ZEyGMmbt7tFjFz_5fG-19" edge="1">
          <mxGeometry relative="1" as="geometry" />
        </mxCell>
        <mxCell id="haqXAU8X_8pByM_LPozM-10" value="Picture" style="ellipse;whiteSpace=wrap;html=1;align=center;" parent="1" vertex="1">
          <mxGeometry x="974" y="321" width="100" height="40" as="geometry" />
        </mxCell>
        <mxCell id="haqXAU8X_8pByM_LPozM-15" value="Order" style="shape=rhombus;perimeter=rhombusPerimeter;whiteSpace=wrap;html=1;align=center;" parent="1" vertex="1">
          <mxGeometry x="560" y="128" width="120" height="60" as="geometry" />
        </mxCell>
        <mxCell id="haqXAU8X_8pByM_LPozM-17" value="sell" style="shape=rhombus;perimeter=rhombusPerimeter;whiteSpace=wrap;html=1;align=center;" parent="1" vertex="1">
          <mxGeometry x="560" y="221" width="120" height="60" as="geometry" />
        </mxCell>
        <mxCell id="haqXAU8X_8pByM_LPozM-28" style="edgeStyle=none;rounded=0;orthogonalLoop=1;jettySize=auto;html=1;exitX=0.5;exitY=1;exitDx=0;exitDy=0;entryX=0.5;entryY=0;entryDx=0;entryDy=0;endArrow=none;endFill=0;" parent="1" source="haqXAU8X_8pByM_LPozM-26" target="haqXAU8X_8pByM_LPozM-15" edge="1">
          <mxGeometry relative="1" as="geometry" />
        </mxCell>
        <mxCell id="haqXAU8X_8pByM_LPozM-26" value="Total_Num" style="ellipse;whiteSpace=wrap;html=1;align=center;dashed=1;" parent="1" vertex="1">
          <mxGeometry x="622" y="51" width="100" height="45" as="geometry" />
        </mxCell>
        <mxCell id="haqXAU8X_8pByM_LPozM-29" style="edgeStyle=none;rounded=0;orthogonalLoop=1;jettySize=auto;html=1;exitX=0.5;exitY=1;exitDx=0;exitDy=0;entryX=0.5;entryY=0;entryDx=0;entryDy=0;endArrow=none;endFill=0;" parent="1" source="haqXAU8X_8pByM_LPozM-27" target="haqXAU8X_8pByM_LPozM-15" edge="1">
          <mxGeometry relative="1" as="geometry" />
        </mxCell>
        <mxCell id="haqXAU8X_8pByM_LPozM-27" value="Total_Price" style="ellipse;whiteSpace=wrap;html=1;align=center;dashed=1;" parent="1" vertex="1">
          <mxGeometry x="502" y="51" width="100" height="40" as="geometry" />
        </mxCell>
        <mxCell id="gXt64RuRlVnK6JQTjlX0-4" style="rounded=0;orthogonalLoop=1;jettySize=auto;html=1;exitX=0.5;exitY=1;exitDx=0;exitDy=0;endArrow=none;endFill=0;" parent="1" source="haqXAU8X_8pByM_LPozM-32" target="x8ZEyGMmbt7tFjFz_5fG-20" edge="1">
          <mxGeometry relative="1" as="geometry" />
        </mxCell>
        <mxCell id="gXt64RuRlVnK6JQTjlX0-37" value="1" style="edgeLabel;html=1;align=center;verticalAlign=middle;resizable=0;points=[];" parent="gXt64RuRlVnK6JQTjlX0-4" vertex="1" connectable="0">
          <mxGeometry x="0.4264" relative="1" as="geometry">
            <mxPoint x="-6" y="-2" as="offset" />
          </mxGeometry>
        </mxCell>
        <mxCell id="haqXAU8X_8pByM_LPozM-32" value="has a" style="shape=rhombus;perimeter=rhombusPerimeter;whiteSpace=wrap;html=1;align=center;" parent="1" vertex="1">
          <mxGeometry x="311.5" y="740" width="120" height="60" as="geometry" />
        </mxCell>
        <mxCell id="gXt64RuRlVnK6JQTjlX0-56" style="edgeStyle=orthogonalEdgeStyle;rounded=0;orthogonalLoop=1;jettySize=auto;html=1;exitX=0;exitY=0.5;exitDx=0;exitDy=0;entryX=1;entryY=0.5;entryDx=0;entryDy=0;endArrow=none;endFill=0;" parent="1" source="haqXAU8X_8pByM_LPozM-33" target="x8ZEyGMmbt7tFjFz_5fG-20" edge="1">
          <mxGeometry relative="1" as="geometry" />
        </mxCell>
        <mxCell id="gXt64RuRlVnK6JQTjlX0-58" value="1" style="edgeLabel;html=1;align=center;verticalAlign=middle;resizable=0;points=[];" parent="gXt64RuRlVnK6JQTjlX0-56" vertex="1" connectable="0">
          <mxGeometry x="0.7548" relative="1" as="geometry">
            <mxPoint x="-4" y="-9" as="offset" />
          </mxGeometry>
        </mxCell>
        <mxCell id="haqXAU8X_8pByM_LPozM-33" value="has a" style="shape=rhombus;perimeter=rhombusPerimeter;whiteSpace=wrap;html=1;align=center;" parent="1" vertex="1">
          <mxGeometry x="581.5" y="869" width="120" height="60" as="geometry" />
        </mxCell>
        <mxCell id="gXt64RuRlVnK6JQTjlX0-1" value="Address" style="ellipse;whiteSpace=wrap;html=1;align=center;" parent="1" vertex="1">
          <mxGeometry x="18" y="246" width="100" height="40" as="geometry" />
        </mxCell>
        <mxCell id="gXt64RuRlVnK6JQTjlX0-9" style="rounded=0;orthogonalLoop=1;jettySize=auto;html=1;exitX=0;exitY=0.5;exitDx=0;exitDy=0;entryX=1;entryY=0;entryDx=0;entryDy=0;endArrow=none;endFill=0;" parent="1" source="Ki7yifnEwKV7LB0Z3aAY-3" target="gXt64RuRlVnK6JQTjlX0-8" edge="1">
          <mxGeometry relative="1" as="geometry">
            <mxPoint x="192.25" y="506.0000000000001" as="sourcePoint" />
          </mxGeometry>
        </mxCell>
        <mxCell id="gXt64RuRlVnK6JQTjlX0-13" style="rounded=0;orthogonalLoop=1;jettySize=auto;html=1;exitX=0;exitY=0.5;exitDx=0;exitDy=0;endArrow=none;endFill=0;" parent="1" source="Ki7yifnEwKV7LB0Z3aAY-3" target="gXt64RuRlVnK6JQTjlX0-12" edge="1">
          <mxGeometry relative="1" as="geometry">
            <mxPoint x="192.25" y="506.0000000000001" as="sourcePoint" />
          </mxGeometry>
        </mxCell>
        <mxCell id="gXt64RuRlVnK6JQTjlX0-17" style="rounded=0;orthogonalLoop=1;jettySize=auto;html=1;endArrow=none;endFill=0;exitX=0;exitY=0.5;exitDx=0;exitDy=0;" parent="1" source="Ki7yifnEwKV7LB0Z3aAY-3" target="gXt64RuRlVnK6JQTjlX0-16" edge="1">
          <mxGeometry relative="1" as="geometry">
            <mxPoint x="192.6790000000001" y="507.35000000000014" as="sourcePoint" />
          </mxGeometry>
        </mxCell>
        <mxCell id="gXt64RuRlVnK6JQTjlX0-39" style="rounded=0;orthogonalLoop=1;jettySize=auto;html=1;entryX=1;entryY=0.5;entryDx=0;entryDy=0;endArrow=none;endFill=0;exitX=0;exitY=0.5;exitDx=0;exitDy=0;" parent="1" source="Ki7yifnEwKV7LB0Z3aAY-3" target="gXt64RuRlVnK6JQTjlX0-38" edge="1">
          <mxGeometry relative="1" as="geometry">
            <mxPoint x="192.25" y="506.0000000000001" as="sourcePoint" />
          </mxGeometry>
        </mxCell>
        <mxCell id="gXt64RuRlVnK6JQTjlX0-8" value="&lt;div&gt;&lt;u&gt;Item_ID&lt;/u&gt;&lt;/div&gt;" style="ellipse;whiteSpace=wrap;html=1;align=center;" parent="1" vertex="1">
          <mxGeometry x="14.25" y="575" width="100" height="40" as="geometry" />
        </mxCell>
        <mxCell id="gXt64RuRlVnK6JQTjlX0-12" value="&lt;div&gt;User_ID&lt;/div&gt;" style="ellipse;whiteSpace=wrap;html=1;align=center;" parent="1" vertex="1">
          <mxGeometry x="122.25" y="570" width="70" height="40" as="geometry" />
        </mxCell>
        <mxCell id="gXt64RuRlVnK6JQTjlX0-18" style="rounded=0;orthogonalLoop=1;jettySize=auto;html=1;exitX=1;exitY=0.5;exitDx=0;exitDy=0;entryX=0;entryY=0.5;entryDx=0;entryDy=0;endArrow=none;endFill=0;" parent="1" source="gXt64RuRlVnK6JQTjlX0-15" target="Ki7yifnEwKV7LB0Z3aAY-3" edge="1">
          <mxGeometry relative="1" as="geometry">
            <mxPoint x="192.25" y="506.0000000000001" as="targetPoint" />
          </mxGeometry>
        </mxCell>
        <mxCell id="gXt64RuRlVnK6JQTjlX0-15" value="Shipping_Date" style="ellipse;whiteSpace=wrap;html=1;align=center;" parent="1" vertex="1">
          <mxGeometry x="19.25" y="421" width="95" height="40" as="geometry" />
        </mxCell>
        <mxCell id="gXt64RuRlVnK6JQTjlX0-16" value="Price" style="ellipse;whiteSpace=wrap;html=1;align=center;" parent="1" vertex="1">
          <mxGeometry x="14.75" y="525.5" width="95" height="40" as="geometry" />
        </mxCell>
        <mxCell id="gXt64RuRlVnK6JQTjlX0-20" value="&lt;div&gt;&lt;font style=&quot;font-size: 17px;&quot;&gt;&lt;b&gt;Comment&lt;/b&gt;&lt;/font&gt;&lt;/div&gt;" style="rounded=1;arcSize=9;whiteSpace=wrap;html=1;align=center;" parent="1" vertex="1">
          <mxGeometry x="564.5" y="601" width="110" height="50" as="geometry" />
        </mxCell>
        <mxCell id="gXt64RuRlVnK6JQTjlX0-28" style="rounded=0;orthogonalLoop=1;jettySize=auto;html=1;exitX=0.5;exitY=1;exitDx=0;exitDy=0;entryX=1;entryY=0.5;entryDx=0;entryDy=0;endArrow=none;endFill=0;" parent="1" source="gXt64RuRlVnK6JQTjlX0-23" target="gXt64RuRlVnK6JQTjlX0-20" edge="1">
          <mxGeometry relative="1" as="geometry" />
        </mxCell>
        <mxCell id="gXt64RuRlVnK6JQTjlX0-31" value="M" style="edgeLabel;html=1;align=center;verticalAlign=middle;resizable=0;points=[];" parent="gXt64RuRlVnK6JQTjlX0-28" vertex="1" connectable="0">
          <mxGeometry x="0.8516" relative="1" as="geometry">
            <mxPoint x="5" y="-2" as="offset" />
          </mxGeometry>
        </mxCell>
        <mxCell id="gXt64RuRlVnK6JQTjlX0-23" value="Has a" style="shape=rhombus;perimeter=rhombusPerimeter;whiteSpace=wrap;html=1;align=center;" parent="1" vertex="1">
          <mxGeometry x="699" y="511" width="120" height="60" as="geometry" />
        </mxCell>
        <mxCell id="gXt64RuRlVnK6JQTjlX0-26" style="rounded=0;orthogonalLoop=1;jettySize=auto;html=1;exitX=0.5;exitY=1;exitDx=0;exitDy=0;entryX=0;entryY=0.5;entryDx=0;entryDy=0;endArrow=none;endFill=0;" parent="1" source="gXt64RuRlVnK6JQTjlX0-24" target="gXt64RuRlVnK6JQTjlX0-20" edge="1">
          <mxGeometry relative="1" as="geometry" />
        </mxCell>
        <mxCell id="gXt64RuRlVnK6JQTjlX0-24" value="Make a" style="shape=rhombus;perimeter=rhombusPerimeter;whiteSpace=wrap;html=1;align=center;" parent="1" vertex="1">
          <mxGeometry x="413.5" y="521" width="120" height="60" as="geometry" />
        </mxCell>
        <mxCell id="gXt64RuRlVnK6JQTjlX0-34" value="N" style="text;html=1;align=center;verticalAlign=middle;resizable=0;points=[];autosize=1;strokeColor=none;fillColor=none;" parent="1" vertex="1">
          <mxGeometry x="539.5" y="599" width="30" height="30" as="geometry" />
        </mxCell>
        <mxCell id="gXt64RuRlVnK6JQTjlX0-38" value="Quantity" style="ellipse;whiteSpace=wrap;html=1;align=center;" parent="1" vertex="1">
          <mxGeometry x="14.75" y="471" width="95" height="40" as="geometry" />
        </mxCell>
        <mxCell id="gXt64RuRlVnK6JQTjlX0-50" style="rounded=0;orthogonalLoop=1;jettySize=auto;html=1;exitX=0.5;exitY=0;exitDx=0;exitDy=0;entryX=0.5;entryY=1;entryDx=0;entryDy=0;endArrow=none;endFill=0;" parent="1" source="gXt64RuRlVnK6JQTjlX0-40" target="gXt64RuRlVnK6JQTjlX0-20" edge="1">
          <mxGeometry relative="1" as="geometry" />
        </mxCell>
        <mxCell id="gXt64RuRlVnK6JQTjlX0-40" value="Rate" style="ellipse;whiteSpace=wrap;html=1;align=center;" parent="1" vertex="1">
          <mxGeometry x="469.5" y="665.5" width="100" height="40" as="geometry" />
        </mxCell>
        <mxCell id="gXt64RuRlVnK6JQTjlX0-53" style="rounded=0;orthogonalLoop=1;jettySize=auto;html=1;exitX=0.5;exitY=0;exitDx=0;exitDy=0;entryX=0.5;entryY=1;entryDx=0;entryDy=0;endArrow=none;endFill=0;" parent="1" source="gXt64RuRlVnK6JQTjlX0-41" target="gXt64RuRlVnK6JQTjlX0-20" edge="1">
          <mxGeometry relative="1" as="geometry" />
        </mxCell>
        <mxCell id="gXt64RuRlVnK6JQTjlX0-41" value="&lt;u&gt;Comment_id&lt;/u&gt;" style="ellipse;whiteSpace=wrap;html=1;align=center;" parent="1" vertex="1">
          <mxGeometry x="569.5" y="751" width="100" height="40" as="geometry" />
        </mxCell>
        <mxCell id="gXt64RuRlVnK6JQTjlX0-52" style="rounded=0;orthogonalLoop=1;jettySize=auto;html=1;entryX=0.5;entryY=1;entryDx=0;entryDy=0;endArrow=none;endFill=0;" parent="1" source="gXt64RuRlVnK6JQTjlX0-47" target="gXt64RuRlVnK6JQTjlX0-20" edge="1">
          <mxGeometry relative="1" as="geometry" />
        </mxCell>
        <mxCell id="gXt64RuRlVnK6JQTjlX0-47" value="&lt;div&gt;Item_ID&lt;/div&gt;" style="ellipse;whiteSpace=wrap;html=1;align=center;" parent="1" vertex="1">
          <mxGeometry x="646.5" y="715" width="100" height="40" as="geometry" />
        </mxCell>
        <mxCell id="gXt64RuRlVnK6JQTjlX0-51" style="rounded=0;orthogonalLoop=1;jettySize=auto;html=1;entryX=0.5;entryY=1;entryDx=0;entryDy=0;endArrow=none;endFill=0;" parent="1" source="gXt64RuRlVnK6JQTjlX0-49" target="gXt64RuRlVnK6JQTjlX0-20" edge="1">
          <mxGeometry relative="1" as="geometry" />
        </mxCell>
        <mxCell id="gXt64RuRlVnK6JQTjlX0-49" value="&lt;div&gt;Description&lt;/div&gt;" style="ellipse;whiteSpace=wrap;html=1;align=center;" parent="1" vertex="1">
          <mxGeometry x="481.5" y="721" width="100" height="40" as="geometry" />
        </mxCell>
        <mxCell id="gXt64RuRlVnK6JQTjlX0-105" style="rounded=0;orthogonalLoop=1;jettySize=auto;html=1;exitX=0.5;exitY=1;exitDx=0;exitDy=0;endArrow=none;endFill=0;" parent="1" source="gXt64RuRlVnK6JQTjlX0-59" target="x8ZEyGMmbt7tFjFz_5fG-31" edge="1">
          <mxGeometry relative="1" as="geometry" />
        </mxCell>
        <mxCell id="gXt64RuRlVnK6JQTjlX0-106" value="1" style="edgeLabel;html=1;align=center;verticalAlign=middle;resizable=0;points=[];" parent="gXt64RuRlVnK6JQTjlX0-105" vertex="1" connectable="0">
          <mxGeometry x="0.3512" relative="1" as="geometry">
            <mxPoint x="-7" y="3" as="offset" />
          </mxGeometry>
        </mxCell>
        <mxCell id="gXt64RuRlVnK6JQTjlX0-59" value="Has a" style="shape=rhombus;double=1;perimeter=rhombusPerimeter;whiteSpace=wrap;html=1;align=center;" parent="1" vertex="1">
          <mxGeometry x="922" y="471" width="120" height="60" as="geometry" />
        </mxCell>
        <mxCell id="gXt64RuRlVnK6JQTjlX0-61" value="&lt;div&gt;Item_ID&lt;/div&gt;" style="ellipse;whiteSpace=wrap;html=1;align=center;" parent="1" vertex="1">
          <mxGeometry x="862" y="694" width="100" height="40" as="geometry" />
        </mxCell>
        <mxCell id="gXt64RuRlVnK6JQTjlX0-67" style="rounded=0;orthogonalLoop=1;jettySize=auto;html=1;entryX=0.5;entryY=0;entryDx=0;entryDy=0;endArrow=none;endFill=0;exitX=0.5;exitY=1;exitDx=0;exitDy=0;" parent="1" source="Ki7yifnEwKV7LB0Z3aAY-1" target="Ki7yifnEwKV7LB0Z3aAY-3" edge="1">
          <mxGeometry relative="1" as="geometry">
            <mxPoint x="240" y="420" as="sourcePoint" />
            <mxPoint x="263.75" y="481.0000000000001" as="targetPoint" />
          </mxGeometry>
        </mxCell>
        <mxCell id="gXt64RuRlVnK6JQTjlX0-69" value="1" style="edgeLabel;html=1;align=center;verticalAlign=middle;resizable=0;points=[];" parent="gXt64RuRlVnK6JQTjlX0-67" vertex="1" connectable="0">
          <mxGeometry x="0.465" y="-1" relative="1" as="geometry">
            <mxPoint as="offset" />
          </mxGeometry>
        </mxCell>
        <mxCell id="gXt64RuRlVnK6JQTjlX0-79" style="rounded=0;orthogonalLoop=1;jettySize=auto;html=1;exitX=0;exitY=0.5;exitDx=0;exitDy=0;endArrow=none;endFill=0;entryX=1;entryY=0.5;entryDx=0;entryDy=0;" parent="1" source="gXt64RuRlVnK6JQTjlX0-77" target="gXt64RuRlVnK6JQTjlX0-80" edge="1">
          <mxGeometry relative="1" as="geometry">
            <mxPoint x="860" y="270" as="targetPoint" />
          </mxGeometry>
        </mxCell>
        <mxCell id="gXt64RuRlVnK6JQTjlX0-103" value="1" style="edgeLabel;html=1;align=center;verticalAlign=middle;resizable=0;points=[];" parent="gXt64RuRlVnK6JQTjlX0-79" vertex="1" connectable="0">
          <mxGeometry x="0.3135" y="1" relative="1" as="geometry">
            <mxPoint x="-5" y="-3" as="offset" />
          </mxGeometry>
        </mxCell>
        <mxCell id="gXt64RuRlVnK6JQTjlX0-77" value="Manage" style="shape=rhombus;perimeter=rhombusPerimeter;whiteSpace=wrap;html=1;align=center;" parent="1" vertex="1">
          <mxGeometry x="420.5" y="264" width="120" height="60" as="geometry" />
        </mxCell>
        <mxCell id="gXt64RuRlVnK6JQTjlX0-80" value="&lt;div style=&quot;font-size: 18px;&quot;&gt;&lt;font size=&quot;1&quot;&gt;&lt;b&gt;&lt;font style=&quot;font-size: 17px;&quot;&gt;Admin&lt;/font&gt;&lt;/b&gt;&lt;/font&gt;&lt;/div&gt;" style="rounded=1;arcSize=9;whiteSpace=wrap;html=1;align=center;" parent="1" vertex="1">
          <mxGeometry x="581.5" y="353" width="110" height="50" as="geometry" />
        </mxCell>
        <mxCell id="gXt64RuRlVnK6JQTjlX0-89" style="rounded=0;orthogonalLoop=1;jettySize=auto;html=1;entryX=0.5;entryY=1;entryDx=0;entryDy=0;endArrow=none;endFill=0;" parent="1" source="gXt64RuRlVnK6JQTjlX0-84" target="gXt64RuRlVnK6JQTjlX0-80" edge="1">
          <mxGeometry relative="1" as="geometry" />
        </mxCell>
        <mxCell id="gXt64RuRlVnK6JQTjlX0-84" value="&lt;div&gt;Username&lt;/div&gt;" style="ellipse;whiteSpace=wrap;html=1;align=center;" parent="1" vertex="1">
          <mxGeometry x="622" y="471" width="70" height="40" as="geometry" />
        </mxCell>
        <mxCell id="gXt64RuRlVnK6JQTjlX0-88" style="rounded=0;orthogonalLoop=1;jettySize=auto;html=1;entryX=0.5;entryY=1;entryDx=0;entryDy=0;endArrow=none;endFill=0;" parent="1" source="gXt64RuRlVnK6JQTjlX0-85" target="gXt64RuRlVnK6JQTjlX0-80" edge="1">
          <mxGeometry relative="1" as="geometry" />
        </mxCell>
        <mxCell id="gXt64RuRlVnK6JQTjlX0-85" value="&lt;div&gt;Email&lt;/div&gt;" style="ellipse;whiteSpace=wrap;html=1;align=center;" parent="1" vertex="1">
          <mxGeometry x="552" y="441" width="70" height="40" as="geometry" />
        </mxCell>
        <mxCell id="gXt64RuRlVnK6JQTjlX0-87" style="rounded=0;orthogonalLoop=1;jettySize=auto;html=1;exitX=1;exitY=0.5;exitDx=0;exitDy=0;endArrow=none;endFill=0;entryX=0.5;entryY=1;entryDx=0;entryDy=0;" parent="1" source="gXt64RuRlVnK6JQTjlX0-86" target="gXt64RuRlVnK6JQTjlX0-80" edge="1">
          <mxGeometry relative="1" as="geometry">
            <mxPoint x="635" y="441" as="targetPoint" />
          </mxGeometry>
        </mxCell>
        <mxCell id="gXt64RuRlVnK6JQTjlX0-86" value="Password" style="ellipse;whiteSpace=wrap;html=1;align=center;" parent="1" vertex="1">
          <mxGeometry x="484.5" y="403" width="70" height="40" as="geometry" />
        </mxCell>
        <mxCell id="gXt64RuRlVnK6JQTjlX0-93" style="rounded=0;orthogonalLoop=1;jettySize=auto;html=1;exitX=0.5;exitY=0;exitDx=0;exitDy=0;entryX=0.5;entryY=1;entryDx=0;entryDy=0;endArrow=none;endFill=0;" parent="1" source="gXt64RuRlVnK6JQTjlX0-92" target="gXt64RuRlVnK6JQTjlX0-80" edge="1">
          <mxGeometry relative="1" as="geometry" />
        </mxCell>
        <mxCell id="gXt64RuRlVnK6JQTjlX0-92" value="&lt;u&gt;Id&lt;/u&gt;" style="ellipse;whiteSpace=wrap;html=1;align=center;" parent="1" vertex="1">
          <mxGeometry x="669.5" y="431" width="70" height="40" as="geometry" />
        </mxCell>
        <mxCell id="gXt64RuRlVnK6JQTjlX0-100" style="rounded=0;orthogonalLoop=1;jettySize=auto;html=1;exitX=0.5;exitY=1;exitDx=0;exitDy=0;entryX=0.5;entryY=0;entryDx=0;entryDy=0;endArrow=none;endFill=0;" parent="1" source="gXt64RuRlVnK6JQTjlX0-98" target="gXt64RuRlVnK6JQTjlX0-80" edge="1">
          <mxGeometry relative="1" as="geometry" />
        </mxCell>
        <mxCell id="gXt64RuRlVnK6JQTjlX0-102" value="1" style="edgeLabel;html=1;align=center;verticalAlign=middle;resizable=0;points=[];" parent="gXt64RuRlVnK6JQTjlX0-100" vertex="1" connectable="0">
          <mxGeometry x="0.5081" y="-2" relative="1" as="geometry">
            <mxPoint as="offset" />
          </mxGeometry>
        </mxCell>
        <mxCell id="gXt64RuRlVnK6JQTjlX0-98" value="sell" style="shape=rhombus;perimeter=rhombusPerimeter;whiteSpace=wrap;html=1;align=center;" parent="1" vertex="1">
          <mxGeometry x="682" y="264" width="120" height="60" as="geometry" />
        </mxCell>
        <mxCell id="Ki7yifnEwKV7LB0Z3aAY-1" value="Has a" style="shape=rhombus;double=1;perimeter=rhombusPerimeter;whiteSpace=wrap;html=1;align=center;" vertex="1" parent="1">
          <mxGeometry x="186" y="353" width="120" height="60" as="geometry" />
        </mxCell>
        <mxCell id="Ki7yifnEwKV7LB0Z3aAY-3" value="&lt;b&gt;Order_History&lt;/b&gt;" style="shape=ext;margin=3;double=1;whiteSpace=wrap;html=1;align=center;" vertex="1" parent="1">
          <mxGeometry x="191" y="476" width="110" height="55" as="geometry" />
        </mxCell>
      </root>
    </mxGraphModel>
  </diagram>
</mxfile>
